<?xml version="1.0" standalone="no"?><!DOCTYPE svg PUBLIC "-//W3C//DTD SVG 1.1//EN" "http://www.w3.org/Graphics/SVG/1.1/DTD/svg11.dtd"><svg t="1689320658175" class="icon" viewBox="0 0 1024 1024" version="1.1" xmlns="http://www.w3.org/2000/svg" p-id="14300" width="24" height="24" xmlns:xlink="http://www.w3.org/1999/xlink"><path d="M512 506.56a68.96 68.96 0 0 1-23.36-4l-304-107.52a55.84 55.84 0 0 1 0-107.52l304-107.52a70.88 70.88 0 0 1 46.72 0l304 107.52a55.84 55.84 0 0 1 0 107.52l-304 107.52a68.96 68.96 0 0 1-23.36 4z" p-id="14301"></path><path d="M839.36 458.24l-48-16.8-89.92 32L811.68 512 512 617.76 212.32 512l109.76-38.72-90.08-32-48 16.8a55.84 55.84 0 0 0 0 107.52l304 107.52a70.24 70.24 0 0 0 46.72 0l304-107.52a55.84 55.84 0 0 0 0-107.52z" p-id="14302"></path><path d="M839.36 628.96l-48-16.8-89.92 32 109.6 38.72L512 788.48l-299.2-105.76 109.76-38.72-90.08-32-48 16.8a55.84 55.84 0 0 0 0 107.52l304 107.52a70.24 70.24 0 0 0 46.72 0l304-107.52a55.84 55.84 0 0 0 0-107.52z" p-id="14303"></path></svg>